<svg xmlns="http://www.w3.org/2000/svg" xmlns:xlink="http://www.w3.org/1999/xlink" width="500" zoomAndPan="magnify" viewBox="0 0 375 374.999991" height="500" preserveAspectRatio="xMidYMid meet" version="1.0"><defs><clipPath id="2f3b46716e"><path d="M 93 153 L 285 153 L 285 375 L 93 375 Z M 93 153 " clip-rule="nonzero"/></clipPath><clipPath id="d59892e5a7"><path d="M 168.488281 -40.925781 L 364.121094 41.398438 L 206.457031 416.078125 L 10.824219 333.753906 Z M 168.488281 -40.925781 " clip-rule="nonzero"/></clipPath><clipPath id="2d6821893a"><path d="M 364.113281 41.394531 L 168.476562 -40.929688 L 10.8125 333.75 L 206.449219 416.074219 Z M 364.113281 41.394531 " clip-rule="nonzero"/></clipPath><clipPath id="dde99a4520"><path d="M 90 0 L 282 0 L 282 222 L 90 222 Z M 90 0 " clip-rule="nonzero"/></clipPath><clipPath id="fe805b818a"><path d="M 168.488281 -40.925781 L 364.121094 41.398438 L 206.457031 416.078125 L 10.824219 333.753906 Z M 168.488281 -40.925781 " clip-rule="nonzero"/></clipPath><clipPath id="8b4338b0f0"><path d="M 364.113281 41.394531 L 168.476562 -40.929688 L 10.8125 333.75 L 206.449219 416.074219 Z M 364.113281 41.394531 " clip-rule="nonzero"/></clipPath></defs><g clip-path="url(#2f3b46716e)"><g clip-path="url(#d59892e5a7)"><g clip-path="url(#2d6821893a)"><path fill="#5271ff" d="M 269.265625 153.425781 L 148.785156 223.292969 C 147.21875 224.199219 145.675781 225.144531 144.15625 226.128906 C 142.636719 227.113281 141.144531 228.132812 139.675781 229.191406 C 138.203125 230.246094 136.761719 231.339844 135.347656 232.464844 C 133.929688 233.59375 132.542969 234.757812 131.183594 235.953125 C 129.828125 237.148438 128.496094 238.375 127.199219 239.636719 C 125.902344 240.898438 124.632812 242.191406 123.398438 243.515625 C 122.164062 244.835938 120.964844 246.191406 119.792969 247.570312 C 118.625 248.953125 117.492188 250.363281 116.394531 251.800781 C 115.292969 253.238281 114.230469 254.703125 113.203125 256.195312 C 112.175781 257.683594 111.183594 259.199219 110.230469 260.738281 C 109.277344 262.277344 108.363281 263.835938 107.488281 265.421875 C 106.609375 267.003906 105.773438 268.609375 104.976562 270.234375 C 104.175781 271.855469 103.417969 273.5 102.703125 275.164062 C 101.984375 276.824219 101.308594 278.503906 100.675781 280.199219 C 100.039062 281.890625 99.445312 283.601562 98.894531 285.324219 C 98.34375 287.050781 97.835938 288.785156 97.371094 290.535156 C 96.90625 292.285156 96.484375 294.042969 96.101562 295.8125 C 95.722656 297.582031 95.386719 299.363281 95.097656 301.148438 C 94.804688 302.933594 94.554688 304.726562 94.351562 306.523438 C 94.148438 308.324219 93.988281 310.125 93.871094 311.933594 C 93.757812 313.738281 93.683594 315.546875 93.65625 317.355469 C 93.632812 319.164062 93.648438 320.976562 93.710938 322.785156 C 93.773438 324.59375 93.878906 326.398438 94.027344 328.203125 C 94.179688 330.007812 94.375 331.804688 94.613281 333.601562 C 94.851562 335.394531 95.132812 337.179688 95.460938 338.960938 C 95.789062 340.742188 96.15625 342.511719 96.570312 344.273438 C 96.984375 346.039062 97.441406 347.789062 97.941406 349.527344 C 98.4375 351.265625 98.980469 352.992188 99.566406 354.707031 C 100.148438 356.421875 100.773438 358.117188 101.441406 359.800781 C 102.109375 361.484375 102.816406 363.148438 103.566406 364.796875 C 104.316406 366.441406 105.105469 368.070312 105.933594 369.679688 C 106.761719 371.289062 107.632812 372.878906 108.539062 374.445312 L 229.019531 304.578125 C 230.585938 303.667969 232.128906 302.722656 233.648438 301.742188 C 235.167969 300.757812 236.660156 299.738281 238.128906 298.679688 C 239.597656 297.621094 241.042969 296.53125 242.457031 295.402344 C 243.875 294.273438 245.261719 293.113281 246.617188 291.917969 C 247.976562 290.722656 249.304688 289.492188 250.605469 288.230469 C 251.902344 286.96875 253.167969 285.679688 254.40625 284.355469 C 255.640625 283.03125 256.839844 281.679688 258.007812 280.296875 C 259.179688 278.914062 260.3125 277.503906 261.410156 276.066406 C 262.511719 274.628906 263.574219 273.164062 264.601562 271.675781 C 265.628906 270.183594 266.621094 268.671875 267.574219 267.132812 C 268.527344 265.59375 269.441406 264.03125 270.316406 262.449219 C 271.195312 260.863281 272.03125 259.261719 272.828125 257.636719 C 273.625 256.011719 274.382812 254.367188 275.101562 252.707031 C 275.820312 251.042969 276.496094 249.367188 277.128906 247.671875 C 277.765625 245.976562 278.355469 244.265625 278.910156 242.542969 C 279.460938 240.820312 279.96875 239.082031 280.433594 237.332031 C 280.898438 235.585938 281.320312 233.824219 281.699219 232.054688 C 282.082031 230.285156 282.414062 228.507812 282.707031 226.722656 C 283 224.933594 283.25 223.140625 283.453125 221.34375 C 283.65625 219.546875 283.816406 217.742188 283.933594 215.9375 C 284.046875 214.128906 284.117188 212.324219 284.144531 210.511719 C 284.171875 208.703125 284.15625 206.894531 284.09375 205.085938 C 284.03125 203.277344 283.925781 201.46875 283.773438 199.664062 C 283.625 197.863281 283.429688 196.0625 283.191406 194.269531 C 282.953125 192.476562 282.667969 190.6875 282.34375 188.90625 C 282.015625 187.128906 281.648438 185.355469 281.234375 183.59375 C 280.820312 181.832031 280.363281 180.082031 279.863281 178.339844 C 279.363281 176.601562 278.824219 174.875 278.238281 173.160156 C 277.65625 171.449219 277.03125 169.75 276.363281 168.070312 C 275.695312 166.386719 274.988281 164.722656 274.238281 163.074219 C 273.488281 161.425781 272.699219 159.796875 271.871094 158.1875 C 271.042969 156.578125 270.171875 154.992188 269.265625 153.425781 Z M 269.265625 153.425781 " fill-opacity="1" fill-rule="nonzero"/></g></g></g><g clip-path="url(#dde99a4520)"><g clip-path="url(#fe805b818a)"><g clip-path="url(#8b4338b0f0)"><path fill="#004aad" d="M 266.4375 0.460938 L 145.957031 70.324219 C 144.390625 71.234375 142.847656 72.179688 141.328125 73.164062 C 139.808594 74.148438 138.3125 75.167969 136.84375 76.226562 C 135.371094 77.285156 133.929688 78.378906 132.511719 79.503906 C 131.097656 80.632812 129.710938 81.796875 128.351562 82.992188 C 126.992188 84.1875 125.660156 85.417969 124.363281 86.679688 C 123.066406 87.941406 121.796875 89.234375 120.5625 90.558594 C 119.328125 91.882812 118.125 93.234375 116.957031 94.617188 C 115.789062 96 114.652344 97.414062 113.554688 98.851562 C 112.453125 100.289062 111.390625 101.753906 110.363281 103.246094 C 109.335938 104.734375 108.34375 106.25 107.390625 107.789062 C 106.4375 109.332031 105.523438 110.890625 104.648438 112.476562 C 103.769531 114.0625 102.933594 115.664062 102.136719 117.292969 C 101.335938 118.917969 100.578125 120.5625 99.863281 122.222656 C 99.144531 123.886719 98.46875 125.566406 97.835938 127.261719 C 97.199219 128.957031 96.609375 130.667969 96.058594 132.394531 C 95.507812 134.117188 95 135.855469 94.535156 137.605469 C 94.066406 139.355469 93.644531 141.117188 93.265625 142.886719 C 92.886719 144.65625 92.554688 146.433594 92.261719 148.222656 C 91.96875 150.007812 91.722656 151.804688 91.519531 153.601562 C 91.316406 155.402344 91.15625 157.203125 91.042969 159.011719 C 90.925781 160.820312 90.855469 162.628906 90.828125 164.4375 C 90.804688 166.25 90.820312 168.058594 90.882812 169.867188 C 90.945312 171.679688 91.054688 173.484375 91.207031 175.289062 C 91.355469 177.09375 91.550781 178.894531 91.792969 180.6875 C 92.03125 182.484375 92.316406 184.269531 92.644531 186.050781 C 92.96875 187.832031 93.339844 189.605469 93.757812 191.367188 C 94.171875 193.128906 94.628906 194.878906 95.128906 196.621094 C 95.628906 198.359375 96.171875 200.089844 96.757812 201.800781 C 97.34375 203.515625 97.96875 205.214844 98.636719 206.894531 C 99.308594 208.578125 100.015625 210.242188 100.765625 211.890625 C 101.515625 213.539062 102.308594 215.167969 103.136719 216.777344 C 103.96875 218.386719 104.835938 219.972656 105.746094 221.539062 L 226.226562 151.675781 C 227.792969 150.765625 229.335938 149.820312 230.855469 148.835938 C 232.378906 147.851562 233.871094 146.832031 235.34375 145.773438 C 236.8125 144.714844 238.253906 143.625 239.671875 142.496094 C 241.085938 141.367188 242.476562 140.203125 243.832031 139.007812 C 245.191406 137.8125 246.523438 136.582031 247.820312 135.320312 C 249.121094 134.058594 250.386719 132.765625 251.621094 131.441406 C 252.855469 130.117188 254.058594 128.765625 255.226562 127.382812 C 256.398438 126 257.53125 124.589844 258.628906 123.148438 C 259.730469 121.710938 260.792969 120.246094 261.820312 118.753906 C 262.847656 117.265625 263.839844 115.75 264.792969 114.210938 C 265.746094 112.671875 266.660156 111.109375 267.539062 109.523438 C 268.414062 107.9375 269.25 106.335938 270.050781 104.707031 C 270.847656 103.082031 271.605469 101.4375 272.320312 99.777344 C 273.039062 98.113281 273.714844 96.433594 274.347656 94.738281 C 274.984375 93.042969 275.574219 91.332031 276.125 89.609375 C 276.675781 87.882812 277.183594 86.144531 277.652344 84.394531 C 278.117188 82.644531 278.539062 80.886719 278.917969 79.113281 C 279.296875 77.34375 279.632812 75.566406 279.921875 73.777344 C 280.214844 71.992188 280.460938 70.199219 280.664062 68.398438 C 280.867188 66.597656 281.027344 64.796875 281.144531 62.988281 C 281.257812 61.183594 281.328125 59.371094 281.355469 57.5625 C 281.382812 55.75 281.363281 53.941406 281.300781 52.132812 C 281.238281 50.324219 281.128906 48.515625 280.980469 46.710938 C 280.828125 44.90625 280.632812 43.105469 280.390625 41.3125 C 280.152344 39.515625 279.867188 37.730469 279.542969 35.949219 C 279.214844 34.167969 278.84375 32.394531 278.429688 30.632812 C 278.015625 28.871094 277.554688 27.121094 277.054688 25.378906 C 276.554688 23.640625 276.011719 21.914062 275.425781 20.199219 C 274.839844 18.484375 274.214844 16.789062 273.546875 15.105469 C 272.878906 13.421875 272.167969 11.757812 271.417969 10.109375 C 270.667969 8.460938 269.875 6.832031 269.046875 5.222656 C 268.214844 3.613281 267.347656 2.027344 266.4375 0.460938 Z M 266.4375 0.460938 " fill-opacity="1" fill-rule="nonzero"/></g></g></g></svg>