<svg xmlns="http://www.w3.org/2000/svg" xmlns:xlink="http://www.w3.org/1999/xlink" width="500" zoomAndPan="magnify" viewBox="0 0 375 149.999998" height="200" preserveAspectRatio="xMidYMid meet" version="1.0"><defs><g/><clipPath id="7b5c97558b"><path d="M 2 62 L 77 62 L 77 148 L 2 148 Z M 2 62 " clip-rule="nonzero"/></clipPath><clipPath id="7bfc2b6c7b"><path d="M 31.519531 -12.453125 L 106.867188 19.253906 L 46.070312 163.734375 L -29.277344 132.027344 Z M 31.519531 -12.453125 " clip-rule="nonzero"/></clipPath><clipPath id="43d0a3fc37"><path d="M 107.050781 19.332031 L 31.703125 -12.375 L -29.09375 132.101562 L 46.253906 163.808594 Z M 107.050781 19.332031 " clip-rule="nonzero"/></clipPath><clipPath id="fbdb81e0e7"><path d="M 1 3 L 76 3 L 76 89 L 1 89 Z M 1 3 " clip-rule="nonzero"/></clipPath><clipPath id="f34c75479e"><path d="M 31.519531 -12.453125 L 106.867188 19.253906 L 46.070312 163.734375 L -29.277344 132.027344 Z M 31.519531 -12.453125 " clip-rule="nonzero"/></clipPath><clipPath id="3fb8a4675b"><path d="M 107.050781 19.332031 L 31.703125 -12.375 L -29.09375 132.101562 L 46.253906 163.808594 Z M 107.050781 19.332031 " clip-rule="nonzero"/></clipPath></defs><g fill="#ffffff" fill-opacity="1"><g transform="translate(106.415364, 91.014888)"><g><path d="M 31.84375 1.359375 C 26.144531 1.359375 21.238281 0.421875 17.125 -1.453125 C 13.019531 -3.328125 9.847656 -5.992188 7.609375 -9.453125 C 5.378906 -12.921875 4.265625 -16.988281 4.265625 -21.65625 L 19.421875 -21.65625 C 19.421875 -18.414062 20.535156 -15.890625 22.765625 -14.078125 C 25.003906 -12.265625 28 -11.359375 31.75 -11.359375 C 34.988281 -11.359375 37.546875 -11.988281 39.421875 -13.25 C 41.296875 -14.507812 42.234375 -16.273438 42.234375 -18.546875 C 42.234375 -20.941406 41.097656 -22.882812 38.828125 -24.375 C 36.566406 -25.863281 33.039062 -27.125 28.25 -28.15625 C 20.289062 -29.84375 14.398438 -32.398438 10.578125 -35.828125 C 6.765625 -39.253906 4.859375 -43.722656 4.859375 -49.234375 C 4.859375 -55.441406 7.125 -60.34375 11.65625 -63.9375 C 16.1875 -67.53125 22.367188 -69.328125 30.203125 -69.328125 C 35.566406 -69.328125 40.222656 -68.40625 44.171875 -66.5625 C 48.117188 -64.71875 51.175781 -62.128906 53.34375 -58.796875 C 55.519531 -55.460938 56.609375 -51.492188 56.609375 -46.890625 L 41.75 -46.890625 C 41.75 -49.929688 40.742188 -52.328125 38.734375 -54.078125 C 36.734375 -55.828125 33.953125 -56.703125 30.390625 -56.703125 C 27.148438 -56.703125 24.59375 -56.070312 22.71875 -54.8125 C 20.84375 -53.550781 19.90625 -51.785156 19.90625 -49.515625 C 19.90625 -47.441406 20.941406 -45.691406 23.015625 -44.265625 C 25.085938 -42.847656 28.710938 -41.523438 33.890625 -40.296875 C 42.367188 -38.285156 48.484375 -35.597656 52.234375 -32.234375 C 55.992188 -28.867188 57.875 -24.5 57.875 -19.125 C 57.875 -12.71875 55.554688 -7.703125 50.921875 -4.078125 C 46.296875 -0.453125 39.9375 1.359375 31.84375 1.359375 Z M 31.84375 1.359375 "/></g></g></g><g fill="#ffffff" fill-opacity="1"><g transform="translate(168.652332, 91.014888)"><g><path d="M 24.375 0.96875 C 18.351562 0.96875 13.59375 -0.4375 10.09375 -3.25 C 6.601562 -6.0625 4.859375 -9.929688 4.859375 -14.859375 C 4.859375 -19.578125 6.425781 -23.34375 9.5625 -26.15625 C 12.695312 -28.976562 16.921875 -30.390625 22.234375 -30.390625 L 40.6875 -30.390625 L 40.6875 -32.71875 C 40.6875 -35.238281 39.78125 -37.257812 37.96875 -38.78125 C 36.15625 -40.3125 33.789062 -41.078125 30.875 -41.078125 C 28.476562 -41.078125 26.4375 -40.523438 24.75 -39.421875 C 23.070312 -38.316406 22.007812 -36.859375 21.5625 -35.046875 L 7.375 -35.046875 C 8.28125 -40.617188 10.785156 -44.890625 14.890625 -47.859375 C 19.003906 -50.835938 24.300781 -52.328125 30.78125 -52.328125 C 38.414062 -52.328125 44.382812 -50.398438 48.6875 -46.546875 C 53 -42.703125 55.15625 -37.414062 55.15625 -30.6875 L 55.15625 0 L 44.171875 0 L 42.53125 -5.921875 C 38.0625 -1.328125 32.007812 0.96875 24.375 0.96875 Z M 19.421875 -15.4375 C 19.421875 -13.6875 20.179688 -12.273438 21.703125 -11.203125 C 23.222656 -10.140625 25.242188 -9.609375 27.765625 -9.609375 C 31.453125 -9.609375 34.507812 -10.675781 36.9375 -12.8125 C 39.363281 -14.945312 40.644531 -17.734375 40.78125 -21.171875 L 26.796875 -21.171875 C 24.597656 -21.171875 22.816406 -20.648438 21.453125 -19.609375 C 20.097656 -18.578125 19.421875 -17.1875 19.421875 -15.4375 Z M 19.421875 -15.4375 "/></g></g></g><g fill="#ffffff" fill-opacity="1"><g transform="translate(230.209659, 91.014888)"><g><path d="M 24.375 0.96875 C 18.351562 0.96875 13.59375 -0.4375 10.09375 -3.25 C 6.601562 -6.0625 4.859375 -9.929688 4.859375 -14.859375 C 4.859375 -19.578125 6.425781 -23.34375 9.5625 -26.15625 C 12.695312 -28.976562 16.921875 -30.390625 22.234375 -30.390625 L 40.6875 -30.390625 L 40.6875 -32.71875 C 40.6875 -35.238281 39.78125 -37.257812 37.96875 -38.78125 C 36.15625 -40.3125 33.789062 -41.078125 30.875 -41.078125 C 28.476562 -41.078125 26.4375 -40.523438 24.75 -39.421875 C 23.070312 -38.316406 22.007812 -36.859375 21.5625 -35.046875 L 7.375 -35.046875 C 8.28125 -40.617188 10.785156 -44.890625 14.890625 -47.859375 C 19.003906 -50.835938 24.300781 -52.328125 30.78125 -52.328125 C 38.414062 -52.328125 44.382812 -50.398438 48.6875 -46.546875 C 53 -42.703125 55.15625 -37.414062 55.15625 -30.6875 L 55.15625 0 L 44.171875 0 L 42.53125 -5.921875 C 38.0625 -1.328125 32.007812 0.96875 24.375 0.96875 Z M 19.421875 -15.4375 C 19.421875 -13.6875 20.179688 -12.273438 21.703125 -11.203125 C 23.222656 -10.140625 25.242188 -9.609375 27.765625 -9.609375 C 31.453125 -9.609375 34.507812 -10.675781 36.9375 -12.8125 C 39.363281 -14.945312 40.644531 -17.734375 40.78125 -21.171875 L 26.796875 -21.171875 C 24.597656 -21.171875 22.816406 -20.648438 21.453125 -19.609375 C 20.097656 -18.578125 19.421875 -17.1875 19.421875 -15.4375 Z M 19.421875 -15.4375 "/></g></g></g><g fill="#ffffff" fill-opacity="1"><g transform="translate(291.766986, 91.014888)"><g><path d="M 31.84375 1.359375 C 26.144531 1.359375 21.238281 0.421875 17.125 -1.453125 C 13.019531 -3.328125 9.847656 -5.992188 7.609375 -9.453125 C 5.378906 -12.921875 4.265625 -16.988281 4.265625 -21.65625 L 19.421875 -21.65625 C 19.421875 -18.414062 20.535156 -15.890625 22.765625 -14.078125 C 25.003906 -12.265625 28 -11.359375 31.75 -11.359375 C 34.988281 -11.359375 37.546875 -11.988281 39.421875 -13.25 C 41.296875 -14.507812 42.234375 -16.273438 42.234375 -18.546875 C 42.234375 -20.941406 41.097656 -22.882812 38.828125 -24.375 C 36.566406 -25.863281 33.039062 -27.125 28.25 -28.15625 C 20.289062 -29.84375 14.398438 -32.398438 10.578125 -35.828125 C 6.765625 -39.253906 4.859375 -43.722656 4.859375 -49.234375 C 4.859375 -55.441406 7.125 -60.34375 11.65625 -63.9375 C 16.1875 -67.53125 22.367188 -69.328125 30.203125 -69.328125 C 35.566406 -69.328125 40.222656 -68.40625 44.171875 -66.5625 C 48.117188 -64.71875 51.175781 -62.128906 53.34375 -58.796875 C 55.519531 -55.460938 56.609375 -51.492188 56.609375 -46.890625 L 41.75 -46.890625 C 41.75 -49.929688 40.742188 -52.328125 38.734375 -54.078125 C 36.734375 -55.828125 33.953125 -56.703125 30.390625 -56.703125 C 27.148438 -56.703125 24.59375 -56.070312 22.71875 -54.8125 C 20.84375 -53.550781 19.90625 -51.785156 19.90625 -49.515625 C 19.90625 -47.441406 20.941406 -45.691406 23.015625 -44.265625 C 25.085938 -42.847656 28.710938 -41.523438 33.890625 -40.296875 C 42.367188 -38.285156 48.484375 -35.597656 52.234375 -32.234375 C 55.992188 -28.867188 57.875 -24.5 57.875 -19.125 C 57.875 -12.71875 55.554688 -7.703125 50.921875 -4.078125 C 46.296875 -0.453125 39.9375 1.359375 31.84375 1.359375 Z M 31.84375 1.359375 "/></g></g></g><g clip-path="url(#7b5c97558b)"><g clip-path="url(#7bfc2b6c7b)"><g clip-path="url(#43d0a3fc37)"><path fill="#5271ff" d="M 70.429688 62.59375 L 23.910156 89.570312 C 22.699219 90.269531 21.527344 91.03125 20.390625 91.847656 C 19.253906 92.664062 18.164062 93.535156 17.113281 94.457031 C 16.0625 95.382812 15.0625 96.355469 14.105469 97.378906 C 13.152344 98.398438 12.25 99.464844 11.402344 100.578125 C 10.550781 101.6875 9.757812 102.839844 9.023438 104.027344 C 8.285156 105.214844 7.609375 106.4375 6.992188 107.695312 C 6.375 108.949219 5.824219 110.230469 5.332031 111.542969 C 4.839844 112.851562 4.417969 114.179688 4.058594 115.53125 C 3.695312 116.882812 3.402344 118.25 3.179688 119.628906 C 2.953125 121.011719 2.796875 122.398438 2.707031 123.792969 C 2.617188 125.191406 2.59375 126.585938 2.644531 127.984375 C 2.691406 129.382812 2.808594 130.773438 2.992188 132.160156 C 3.175781 133.546875 3.429688 134.921875 3.746094 136.28125 C 4.066406 137.644531 4.453125 138.988281 4.902344 140.3125 C 5.355469 141.632812 5.871094 142.933594 6.449219 144.207031 C 7.027344 145.480469 7.667969 146.722656 8.367188 147.929688 L 54.890625 120.953125 C 56.097656 120.253906 57.269531 119.496094 58.40625 118.675781 C 59.542969 117.859375 60.632812 116.992188 61.683594 116.066406 C 62.734375 115.140625 63.734375 114.167969 64.691406 113.148438 C 65.644531 112.125 66.546875 111.058594 67.394531 109.945312 C 68.246094 108.835938 69.039062 107.683594 69.773438 106.496094 C 70.511719 105.308594 71.1875 104.085938 71.804688 102.828125 C 72.421875 101.574219 72.972656 100.292969 73.464844 98.980469 C 73.957031 97.671875 74.378906 96.34375 74.742188 94.992188 C 75.101562 93.640625 75.394531 92.273438 75.617188 90.894531 C 75.84375 89.511719 76.003906 88.125 76.089844 86.730469 C 76.179688 85.332031 76.203125 83.9375 76.152344 82.539062 C 76.105469 81.140625 75.988281 79.75 75.804688 78.363281 C 75.621094 76.976562 75.367188 75.601562 75.050781 74.242188 C 74.730469 72.878906 74.34375 71.535156 73.894531 70.210938 C 73.441406 68.890625 72.925781 67.589844 72.347656 66.316406 C 71.769531 65.042969 71.128906 63.800781 70.429688 62.59375 Z M 70.429688 62.59375 " fill-opacity="1" fill-rule="nonzero"/></g></g></g><g clip-path="url(#fbdb81e0e7)"><g clip-path="url(#f34c75479e)"><g clip-path="url(#3fb8a4675b)"><path fill="#004aad" d="M 69.335938 3.527344 L 22.816406 30.503906 C 21.605469 31.207031 20.433594 31.96875 19.296875 32.785156 C 18.160156 33.601562 17.070312 34.472656 16.019531 35.398438 C 14.96875 36.320312 13.964844 37.296875 13.011719 38.316406 C 12.058594 39.339844 11.15625 40.410156 10.304688 41.519531 C 9.457031 42.632812 8.664062 43.78125 7.925781 44.972656 C 7.1875 46.160156 6.511719 47.382812 5.894531 48.640625 C 5.28125 49.894531 4.726562 51.179688 4.234375 52.488281 C 3.746094 53.800781 3.320312 55.132812 2.960938 56.484375 C 2.601562 57.835938 2.308594 59.203125 2.082031 60.582031 C 1.859375 61.964844 1.703125 63.351562 1.613281 64.75 C 1.523438 66.144531 1.503906 67.542969 1.550781 68.941406 C 1.601562 70.339844 1.71875 71.730469 1.902344 73.117188 C 2.085938 74.503906 2.339844 75.878906 2.660156 77.242188 C 2.980469 78.605469 3.367188 79.945312 3.820312 81.269531 C 4.273438 82.59375 4.789062 83.894531 5.367188 85.167969 C 5.949219 86.441406 6.589844 87.683594 7.289062 88.894531 L 53.8125 61.917969 C 55.019531 61.214844 56.195312 60.453125 57.328125 59.636719 C 58.464844 58.820312 59.558594 57.949219 60.609375 57.023438 C 61.660156 56.101562 62.660156 55.128906 63.617188 54.105469 C 64.570312 53.082031 65.472656 52.011719 66.320312 50.902344 C 67.171875 49.789062 67.964844 48.640625 68.703125 47.449219 C 69.4375 46.261719 70.113281 45.039062 70.730469 43.78125 C 71.347656 42.527344 71.902344 41.242188 72.390625 39.933594 C 72.882812 38.621094 73.304688 37.289062 73.667969 35.9375 C 74.027344 34.585938 74.316406 33.21875 74.542969 31.839844 C 74.769531 30.457031 74.925781 29.070312 75.015625 27.671875 C 75.101562 26.277344 75.125 24.878906 75.074219 23.480469 C 75.027344 22.082031 74.910156 20.691406 74.726562 19.304688 C 74.539062 17.917969 74.285156 16.542969 73.964844 15.179688 C 73.644531 13.816406 73.257812 12.476562 72.808594 11.152344 C 72.355469 9.828125 71.839844 8.527344 71.257812 7.253906 C 70.679688 5.980469 70.039062 4.738281 69.335938 3.527344 Z M 69.335938 3.527344 " fill-opacity="1" fill-rule="nonzero"/></g></g></g><g fill="#ffffff" fill-opacity="1"><g transform="translate(114.093708, 126.79202)"><g><path d="M 0.5 0 L 9.109375 -20.890625 L 11.546875 -20.890625 L 20.140625 0 L 17.375 0 L 15.40625 -4.75 L 5.21875 -4.75 L 3.3125 0 Z M 6.234375 -7.1875 L 14.421875 -7.1875 L 10.328125 -17.21875 Z M 6.234375 -7.1875 "/></g></g></g><g fill="#ffffff" fill-opacity="1"><g transform="translate(137.518795, 126.79202)"><g><path d="M 3.046875 0 L 3.046875 -20.890625 L 10.109375 -20.890625 C 11.679688 -20.890625 13.050781 -20.597656 14.21875 -20.015625 C 15.382812 -19.441406 16.285156 -18.632812 16.921875 -17.59375 C 17.554688 -16.550781 17.875 -15.3125 17.875 -13.875 C 17.875 -12.445312 17.554688 -11.207031 16.921875 -10.15625 C 16.285156 -9.113281 15.382812 -8.300781 14.21875 -7.71875 C 13.050781 -7.144531 11.679688 -6.859375 10.109375 -6.859375 L 5.671875 -6.859375 L 5.671875 0 Z M 5.671875 -9.3125 L 10.0625 -9.3125 C 13.476562 -9.3125 15.1875 -10.820312 15.1875 -13.84375 C 15.1875 -16.875 13.476562 -18.390625 10.0625 -18.390625 L 5.671875 -18.390625 Z M 5.671875 -9.3125 "/></g></g></g><g fill="#ffffff" fill-opacity="1"><g transform="translate(159.362352, 126.79202)"><g><path d="M 3.046875 0 L 3.046875 -20.890625 L 10.109375 -20.890625 C 11.679688 -20.890625 13.050781 -20.597656 14.21875 -20.015625 C 15.382812 -19.441406 16.285156 -18.632812 16.921875 -17.59375 C 17.554688 -16.550781 17.875 -15.3125 17.875 -13.875 C 17.875 -12.445312 17.554688 -11.207031 16.921875 -10.15625 C 16.285156 -9.113281 15.382812 -8.300781 14.21875 -7.71875 C 13.050781 -7.144531 11.679688 -6.859375 10.109375 -6.859375 L 5.671875 -6.859375 L 5.671875 0 Z M 5.671875 -9.3125 L 10.0625 -9.3125 C 13.476562 -9.3125 15.1875 -10.820312 15.1875 -13.84375 C 15.1875 -16.875 13.476562 -18.390625 10.0625 -18.390625 L 5.671875 -18.390625 Z M 5.671875 -9.3125 "/></g></g></g><g fill="#ffffff" fill-opacity="1"><g transform="translate(181.205909, 126.79202)"><g><path d="M 3.046875 0 L 3.046875 -20.890625 L 5.671875 -20.890625 L 5.671875 -2.5 L 15.8125 -2.5 L 15.8125 0 Z M 3.046875 0 "/></g></g></g><g fill="#ffffff" fill-opacity="1"><g transform="translate(200.721959, 126.79202)"><g><path d="M 3.046875 0 L 3.046875 -20.890625 L 5.671875 -20.890625 L 5.671875 0 Z M 3.046875 0 "/></g></g></g><g fill="#ffffff" fill-opacity="1"><g transform="translate(212.211036, 126.79202)"><g><path d="M 12.296875 0.390625 C 10.765625 0.390625 9.351562 0.125 8.0625 -0.40625 C 6.769531 -0.945312 5.648438 -1.703125 4.703125 -2.671875 C 3.753906 -3.640625 3.019531 -4.785156 2.5 -6.109375 C 1.988281 -7.429688 1.734375 -8.878906 1.734375 -10.453125 C 1.734375 -12.015625 1.988281 -13.457031 2.5 -14.78125 C 3.019531 -16.101562 3.753906 -17.25 4.703125 -18.21875 C 5.648438 -19.1875 6.769531 -19.9375 8.0625 -20.46875 C 9.351562 -21.007812 10.765625 -21.28125 12.296875 -21.28125 C 13.941406 -21.28125 15.457031 -20.972656 16.84375 -20.359375 C 18.226562 -19.753906 19.410156 -18.890625 20.390625 -17.765625 C 21.378906 -16.640625 22.101562 -15.3125 22.5625 -13.78125 L 19.75 -13.78125 C 19.21875 -15.300781 18.289062 -16.492188 16.96875 -17.359375 C 15.644531 -18.222656 14.117188 -18.65625 12.390625 -18.65625 C 10.835938 -18.65625 9.460938 -18.304688 8.265625 -17.609375 C 7.066406 -16.910156 6.125 -15.941406 5.4375 -14.703125 C 4.757812 -13.472656 4.421875 -12.054688 4.421875 -10.453125 C 4.421875 -8.835938 4.757812 -7.410156 5.4375 -6.171875 C 6.125 -4.941406 7.066406 -3.976562 8.265625 -3.28125 C 9.460938 -2.582031 10.835938 -2.234375 12.390625 -2.234375 C 14.160156 -2.234375 15.726562 -2.691406 17.09375 -3.609375 C 18.46875 -4.523438 19.425781 -5.769531 19.96875 -7.34375 L 22.734375 -7.34375 C 22.316406 -5.789062 21.601562 -4.4375 20.59375 -3.28125 C 19.59375 -2.125 18.378906 -1.222656 16.953125 -0.578125 C 15.535156 0.0664062 13.984375 0.390625 12.296875 0.390625 Z M 12.296875 0.390625 "/></g></g></g><g fill="#ffffff" fill-opacity="1"><g transform="translate(239.336282, 126.79202)"><g><path d="M 0.5 0 L 9.109375 -20.890625 L 11.546875 -20.890625 L 20.140625 0 L 17.375 0 L 15.40625 -4.75 L 5.21875 -4.75 L 3.3125 0 Z M 6.234375 -7.1875 L 14.421875 -7.1875 L 10.328125 -17.21875 Z M 6.234375 -7.1875 "/></g></g></g><g fill="#ffffff" fill-opacity="1"><g transform="translate(262.761364, 126.79202)"><g><path d="M 8.09375 0 L 8.09375 -18.390625 L 1.015625 -18.390625 L 1.015625 -20.890625 L 17.75 -20.890625 L 17.75 -18.390625 L 10.71875 -18.390625 L 10.71875 0 Z M 8.09375 0 "/></g></g></g><g fill="#ffffff" fill-opacity="1"><g transform="translate(284.336353, 126.79202)"><g><path d="M 3.046875 0 L 3.046875 -20.890625 L 5.671875 -20.890625 L 5.671875 0 Z M 3.046875 0 "/></g></g></g><g fill="#ffffff" fill-opacity="1"><g transform="translate(295.825429, 126.79202)"><g><path d="M 12.53125 0.390625 C 10.425781 0.390625 8.554688 -0.0703125 6.921875 -1 C 5.296875 -1.925781 4.023438 -3.203125 3.109375 -4.828125 C 2.191406 -6.460938 1.734375 -8.335938 1.734375 -10.453125 C 1.734375 -12.578125 2.191406 -14.445312 3.109375 -16.0625 C 4.023438 -17.6875 5.296875 -18.960938 6.921875 -19.890625 C 8.554688 -20.816406 10.425781 -21.28125 12.53125 -21.28125 C 14.664062 -21.28125 16.539062 -20.816406 18.15625 -19.890625 C 19.78125 -18.960938 21.054688 -17.6875 21.984375 -16.0625 C 22.910156 -14.445312 23.375 -12.578125 23.375 -10.453125 C 23.375 -8.335938 22.910156 -6.460938 21.984375 -4.828125 C 21.054688 -3.203125 19.78125 -1.925781 18.15625 -1 C 16.539062 -0.0703125 14.664062 0.390625 12.53125 0.390625 Z M 4.421875 -10.453125 C 4.421875 -8.835938 4.757812 -7.410156 5.4375 -6.171875 C 6.125 -4.941406 7.078125 -3.976562 8.296875 -3.28125 C 9.523438 -2.582031 10.9375 -2.234375 12.53125 -2.234375 C 14.144531 -2.234375 15.554688 -2.582031 16.765625 -3.28125 C 17.984375 -3.976562 18.9375 -4.941406 19.625 -6.171875 C 20.3125 -7.410156 20.65625 -8.835938 20.65625 -10.453125 C 20.65625 -12.078125 20.3125 -13.5 19.625 -14.71875 C 18.9375 -15.945312 17.984375 -16.910156 16.765625 -17.609375 C 15.554688 -18.304688 14.144531 -18.65625 12.53125 -18.65625 C 10.9375 -18.65625 9.523438 -18.304688 8.296875 -17.609375 C 7.078125 -16.910156 6.125 -15.945312 5.4375 -14.71875 C 4.757812 -13.5 4.421875 -12.078125 4.421875 -10.453125 Z M 4.421875 -10.453125 "/></g></g></g><g fill="#ffffff" fill-opacity="1"><g transform="translate(323.666829, 126.79202)"><g><path d="M 3.046875 0 L 3.046875 -20.890625 L 5.515625 -20.890625 L 17.078125 -4.53125 L 17.078125 -20.890625 L 19.640625 -20.890625 L 19.640625 0 L 17.1875 0 L 5.640625 -16.359375 L 5.640625 0 Z M 3.046875 0 "/></g></g></g></svg>